<svg width="100" height="100" viewBox="0 0 100 100" fill="none" xmlns="http://www.w3.org/2000/svg">
<path d="M58.2605 58.2604H56.073V100H100V56.0729H58.2605V58.2604ZM60.2397 60.2395H95.8334V95.8333H60.2397V60.2395Z" fill="#CAA45D"/>
<path d="M52.0625 52.0625H98.8646V0H84.2813V38.3229H56.5521L22.1042 4.16667H73.8646V28.7396H61.3333L46.2083 13.75H63.3021V19.1562H61.0938V23.3229H67.4688V9.58333H36.0833L59.6146 32.9062H78.0313V0H11.9792L54.8333 42.4896H88.4479V4.16667H94.6979V47.8958H50.8542L3.9375 0.614583L0.979167 3.55208L47.8958 50.8438V95.8333H4.16667V88.4479H42.4896V54.8438L0 11.9792V78.0312H32.9063V59.6146L9.58333 36.0833V67.4687H23.3229V61.0938H19.1562V63.3021H13.75V46.2083L28.7396 61.3333V73.8646H4.16667V22.1042L38.3229 56.5521V84.2812H0V100H52.0625V52.0625Z" fill="#CAA45D"/>
<path d="M67.9688 67.9271L67.7396 67.7812V86.875H86.875V67.7396H67.7813L67.9688 67.9271Z" fill="#CAA45D"/>
</svg>
