<svg width="100" height="100" viewBox="0 0 100 100" fill="none" xmlns="http://www.w3.org/2000/svg">
<path d="M41.7396 41.7396L43.9271 41.7396L43.9271 2.57492e-05L-1.14186e-05 2.1909e-05L-1.52588e-05 43.9271L41.7396 43.9271L41.7396 41.7396ZM39.7604 39.7604L4.16665 39.7604L4.16665 4.16669L39.7604 4.16669L39.7604 39.7604Z" fill="#CAA45D"/>
<path d="M47.9375 47.9375L1.13541 47.9375L1.13541 100L15.7187 100L15.7187 61.6771L43.4479 61.6771L77.8958 95.8333L26.1354 95.8333L26.1354 71.2604L38.6667 71.2604L53.7917 86.25L36.6979 86.25L36.6979 80.8437L38.9062 80.8437L38.9062 76.6771L32.5313 76.6771L32.5313 90.4167L63.9167 90.4167L40.3854 67.0937L21.9687 67.0937L21.9687 100L88.0208 100L45.1667 57.5104L11.5521 57.5104L11.5521 95.8333L5.30207 95.8333L5.30207 52.1042L49.1458 52.1042L96.0625 99.3854L99.0208 96.4479L52.1042 49.1562L52.1042 4.16667L95.8333 4.16667L95.8333 11.5521L57.5104 11.5521L57.5104 45.1562L100 88.0208L100 21.9688L67.0938 21.9687L67.0938 40.3854L90.4167 63.9167L90.4167 32.5313L76.6771 32.5313L76.6771 38.9062L80.8438 38.9062L80.8438 36.6979L86.25 36.6979L86.25 53.7917L71.2604 38.6667L71.2604 26.1354L95.8333 26.1354L95.8333 77.8958L61.6771 43.4479L61.6771 15.7187L100 15.7188L100 0L47.9375 -4.55145e-06L47.9375 47.9375Z" fill="#CAA45D"/>
<path d="M32.0312 32.0729L32.2604 32.2188L32.2604 13.125L13.125 13.125L13.125 32.2604L32.2187 32.2604L32.0312 32.0729Z" fill="#CAA45D"/>
</svg>
