<svg width="155" height="148" viewBox="0 0 155 148" fill="none" xmlns="http://www.w3.org/2000/svg">
<path d="M116.965 119.321V147.041H82.3912C76.2364 147.041 70.477 145.921 65.0959 143.682C59.7148 141.442 54.9869 138.393 50.9124 134.533C46.8379 130.674 43.6401 126.109 41.3364 120.854C39.0326 115.6 37.8807 109.88 37.8807 103.695H50.8264C50.8264 108.02 51.6001 112.154 53.1474 116.099C54.6947 120.045 56.8609 123.49 59.646 126.419C62.4311 129.365 65.7664 131.674 69.6346 133.379C73.5029 135.085 77.7665 135.929 82.3912 135.929H103.778V124.197C103.778 118.632 103.091 113.567 101.698 109.019C100.305 104.453 98.1564 100.56 95.2337 97.3037C92.2939 94.0649 88.4944 91.5496 83.7838 89.7751C79.0903 88.0006 58.391 87.1048 51.6173 87.1048C44.8436 87.1048 39.4624 86.1055 34.6142 84.0899C31.6228 82.8494 28.958 81.3161 26.6027 79.49V137.945H39.6343V147.041H0.539429V137.945H13.5883V9.37202H0.539429V0.275635H26.5855V54.027C26.809 55.5086 27.1357 56.9902 27.5311 58.4546C28.4595 61.7796 29.8864 64.7428 31.8119 67.3787C33.7374 70.0146 36.3163 72.0819 39.5484 73.6325C42.7977 75.1658 46.7175 75.941 51.3594 75.941C57.8236 75.941 79.0559 76.7507 85.1591 78.3702C91.2451 80.0068 96.6435 82.5393 101.337 86.0194C106.048 89.4995 109.83 93.9787 112.684 99.4745C115.538 104.953 116.965 111.569 116.965 119.287V119.321Z" fill="white"/>
<path d="M140.999 9.09638H154.048V0H114.953V9.09638H127.985V70.6348C125.698 68.8948 123.119 67.4132 120.231 66.2244C115.383 64.226 109.709 63.2095 103.228 63.2095C96.7466 63.2095 75.755 62.3137 71.0616 60.5392C66.3681 58.7647 62.5515 56.2494 59.6116 53.0106C56.6717 49.7545 54.5227 45.8609 53.1474 41.2955C51.7548 36.7473 51.0671 31.6823 51.0671 26.1176V11.1293H66.265C70.9068 11.1293 75.1533 11.9735 79.0215 13.679C82.8898 15.3846 86.225 17.6932 89.0102 20.6391C91.7953 23.5679 93.9615 27.0135 95.5088 30.9587C97.0561 34.8867 97.8297 39.0214 97.8297 43.3629V45.2752H110.775V43.3629C110.775 37.178 109.624 31.4583 107.32 26.2038C105.016 20.9665 101.818 16.4011 97.7438 12.5248C93.6692 8.66568 88.9414 5.61633 83.5602 3.37669C78.1791 1.13705 72.4197 0.017228 66.265 0.017228H37.8807V30.9932C37.8807 38.7285 39.3077 45.3269 42.1616 50.8054C45.0155 56.2839 48.7978 60.7632 53.5084 64.2604C58.2019 67.7405 63.6002 70.273 69.6862 71.9097C75.7722 73.5291 97.0045 74.3388 103.486 74.3388C108.111 74.3388 112.048 75.1141 115.297 76.6474C118.529 78.1979 121.108 80.2825 123.033 82.9011C124.959 85.537 126.386 88.5002 127.314 91.8252C127.589 92.8072 127.813 93.7892 128.002 94.7885V147.437H154.048V138.341H140.999V9.09638Z" fill="white"/>
</svg>
