<svg width="193" height="139" fill="none" xmlns="http://www.w3.org/2000/svg"><path d="M9.29 114.099h.129c.258 0 .483.032.676.108.162.054.312.129.462.247a.689.689 0 0 1 .237.431v10.044H3.768v-9.936c0-.216.064-.366.182-.474.14-.118.301-.215.473-.28.204-.064.44-.108.72-.129h.129v-1.313H.459v1.313h.129c.29.021.526.054.698.108.161.053.312.129.451.247a.719.719 0 0 1 .237.431v16.127c-.033.204-.108.344-.247.452-.15.118-.301.194-.473.248a2.162 2.162 0 0 1-.656.096H.47v1.325h4.77v-1.314h-.13a3.26 3.26 0 0 1-.72-.129 1.327 1.327 0 0 1-.461-.28c-.118-.108-.172-.269-.172-.484v-4.436h7.037v4.533c-.032.204-.108.355-.237.452-.14.118-.29.194-.462.247a2.013 2.013 0 0 1-.666.097h-.128v1.324h4.78v-1.313h-.129a3.382 3.382 0 0 1-.72-.129 1.342 1.342 0 0 1-.461-.28c-.119-.108-.172-.269-.172-.485v-15.933c0-.215.053-.377.172-.484.128-.119.279-.216.461-.28.205-.065.452-.108.72-.129h.13v-1.324H9.3v1.313l-.011-.011ZM25.62 118.685a5.239 5.239 0 0 0-1.698-1.076 5.48 5.48 0 0 0-2.063-.388 5.44 5.44 0 0 0-2.062.388 5.355 5.355 0 0 0-1.698 1.076 5.183 5.183 0 0 0-1.15 1.636 4.98 4.98 0 0 0-.418 2.046v5.76c0 .732.14 1.421.419 2.056a4.797 4.797 0 0 0 1.15 1.647 5.257 5.257 0 0 0 1.697 1.077 5.499 5.499 0 0 0 2.062.387 5.458 5.458 0 0 0 3.76-1.464 5.062 5.062 0 0 0 1.569-3.703v-5.76a4.98 4.98 0 0 0-.419-2.046 4.86 4.86 0 0 0-1.15-1.636Zm-3.76 13.048c-.538 0-1.021-.097-1.45-.301a3.617 3.617 0 0 1-1.118-.786 3.3 3.3 0 0 1-.71-1.141 3.921 3.921 0 0 1-.246-1.378v-5.749a3.671 3.671 0 0 1 .978-2.519 3.6 3.6 0 0 1 1.117-.786c.43-.194.902-.302 1.418-.302.515 0 1.02.097 1.45.302a3.6 3.6 0 0 1 1.117.786c.312.323.548.71.71 1.151.16.442.246.905.246 1.389v5.717c0 .484-.085.947-.247 1.389a3.247 3.247 0 0 1-.709 1.152 3.499 3.499 0 0 1-1.106.775c-.43.183-.913.28-1.45.28v.021ZM38.415 125.65a5.411 5.411 0 0 0-1.472-1.13c-.58-.312-1.268-.538-2.052-.657a5.018 5.018 0 0 1-1.085-.29 3.54 3.54 0 0 1-.956-.56 2.589 2.589 0 0 1-.677-.84c-.172-.323-.247-.7-.247-1.119 0-.819.247-1.389.763-1.734.526-.355 1.16-.527 1.901-.527.86 0 1.558.247 2.095.743.537.495.806 1.205.806 2.131v.129h1.525v-.129a5.19 5.19 0 0 0-.29-1.755 4.103 4.103 0 0 0-.86-1.431 3.751 3.751 0 0 0-1.385-.937c-.537-.215-1.171-.323-1.859-.323-.58 0-1.138.065-1.643.204a3.7 3.7 0 0 0-1.365.679 3.295 3.295 0 0 0-.924 1.216c-.225.485-.333 1.098-.333 1.82 0 .646.108 1.216.301 1.711.204.496.494.937.849 1.292.354.356.784.657 1.257.872.472.216.988.377 1.536.463.473.086.924.226 1.343.399.408.172.784.409 1.107.689.311.279.569.624.762 1.033.183.398.28.872.28 1.41 0 .463-.086.862-.258 1.206a2.348 2.348 0 0 1-.688.829c-.29.215-.634.377-1.02.485a4.557 4.557 0 0 1-1.214.172c-.538 0-1.02-.086-1.45-.269a3.504 3.504 0 0 1-1.118-.743 3.114 3.114 0 0 1-.709-1.098 3.816 3.816 0 0 1-.247-1.368v-.129h-1.719v.129c0 .733.129 1.422.398 2.035a4.77 4.77 0 0 0 1.106 1.594 4.898 4.898 0 0 0 1.665 1.033 5.634 5.634 0 0 0 2.052.366c.72 0 1.397-.108 2.01-.312.611-.215 1.149-.517 1.578-.904.44-.388.785-.862 1.032-1.422.236-.549.354-1.184.354-1.862 0-.549-.096-1.098-.29-1.636a4.406 4.406 0 0 0-.88-1.475l.02.01ZM52.736 118.707a5.19 5.19 0 0 0-1.676-1.088 5.298 5.298 0 0 0-2.063-.398 5.44 5.44 0 0 0-2.063.388 5.027 5.027 0 0 0-1.45.872v-1.066h-3.31v1.205h.13c.29.022.526.065.677.108.15.043.3.129.45.248a.696.696 0 0 1 .248.43v17.419a.643.643 0 0 1-.226.409c-.14.108-.29.183-.462.237a1.946 1.946 0 0 1-.655.097h-.129v1.346h4.749v-1.335h-.13a3.38 3.38 0 0 1-.719-.129 1.715 1.715 0 0 1-.473-.269c-.118-.097-.172-.248-.172-.463v-4.651a5.2 5.2 0 0 0 1.45.872 5.499 5.499 0 0 0 2.063.387c.731 0 1.43-.129 2.063-.387a5.325 5.325 0 0 0 1.687-1.077 5.25 5.25 0 0 0 1.139-1.647 5.07 5.07 0 0 0 .43-2.056v-5.76c0-.732-.14-1.421-.43-2.045a5.146 5.146 0 0 0-1.14-1.626l.012-.021Zm-3.75 13.048c-.537 0-1.02-.097-1.45-.302a3.618 3.618 0 0 1-1.117-.786 3.29 3.29 0 0 1-.71-1.141 3.915 3.915 0 0 1-.247-1.378v-5.76c0-.484.086-.947.258-1.388a3.6 3.6 0 0 1 .72-1.152 3.368 3.368 0 0 1 1.107-.775c.43-.194.902-.28 1.418-.28.515 0 1.02.097 1.45.301.43.205.806.463 1.117.797.312.323.548.71.71 1.141.16.431.247.894.247 1.378v5.76c0 .484-.086.947-.258 1.388a3.6 3.6 0 0 1-.72 1.152 3.303 3.303 0 0 1-1.117.775c-.43.194-.903.28-1.419.28l.011-.01ZM65.456 128.32c-.033.474-.14.915-.312 1.314a3.434 3.434 0 0 1-.71 1.066c-.3.301-.665.538-1.084.721a3.424 3.424 0 0 1-1.386.269c-.505 0-.935-.086-1.343-.269a3.612 3.612 0 0 1-1.837-1.798c-.193-.409-.3-.85-.333-1.303v-2.928h8.81v-3.068a4.82 4.82 0 0 0-.43-2.046 5.154 5.154 0 0 0-1.14-1.625 5.19 5.19 0 0 0-1.675-1.088 5.26 5.26 0 0 0-2.063-.398c-.73 0-1.418.14-2.063.398a5.772 5.772 0 0 0-1.686 1.088 4.987 4.987 0 0 0-1.139 1.636c-.28.625-.408 1.314-.408 2.046v6.007c.032.7.193 1.356.483 1.948a5.31 5.31 0 0 0 1.139 1.562 5.188 5.188 0 0 0 1.665 1.033c.623.248 1.31.377 2.02.377a5.38 5.38 0 0 0 3.663-1.41c.473-.442.86-.969 1.15-1.562.29-.602.462-1.259.494-1.948v-.14h-1.794v.129l-.022-.011Zm-7.016-4.489v-1.529c0-.484.086-.947.247-1.388.161-.431.398-.819.71-1.142a3.668 3.668 0 0 1 1.106-.775c.43-.183.913-.28 1.45-.28.537 0 1 .097 1.43.28.429.183.805.452 1.106.775.311.323.547.711.709 1.142.16.441.247.904.247 1.388v1.529h-7.016.011ZM80.818 131.733a1.45 1.45 0 0 1-.45-.247.66.66 0 0 1-.248-.409v-19.572h-3.309v1.313h.13c.268.021.515.065.719.129.183.065.333.162.462.269.118.108.183.259.193.463v4.759a5.201 5.201 0 0 0-1.45-.872 5.48 5.48 0 0 0-2.063-.388 5.26 5.26 0 0 0-2.063.398 5.97 5.97 0 0 0-1.697 1.088 5.183 5.183 0 0 0-1.15 1.636 4.974 4.974 0 0 0-.418 2.046v5.759a5.015 5.015 0 0 0 1.569 3.682 5.267 5.267 0 0 0 1.697 1.087 5.28 5.28 0 0 0 2.062.399 5.398 5.398 0 0 0 3.61-1.335l.548 1.173h2.664v-1.281h-.129c-.29-.021-.515-.054-.677-.108v.011Zm-6.027-12.983c.538 0 1.021.097 1.45.301.43.194.806.463 1.118.786a3.3 3.3 0 0 1 .71 1.141c.16.431.246.894.246 1.378v5.792c0 .485-.086.948-.258 1.378a3.512 3.512 0 0 1-.73 1.141 3.35 3.35 0 0 1-1.128.776c-.44.193-.935.29-1.472.29-.537 0-.988-.097-1.407-.301a3.659 3.659 0 0 1-1.085-.786 3.442 3.442 0 0 1-.699-1.141 3.921 3.921 0 0 1-.247-1.378v-5.76c0-.484.086-.947.247-1.378.161-.431.409-.818.71-1.141a3.616 3.616 0 0 1 1.117-.786c.43-.194.913-.301 1.428-.301v-.011ZM96.095 131.83h-.129a1.99 1.99 0 0 1-.655-.097 1.764 1.764 0 0 1-.473-.237.595.595 0 0 1-.236-.42v-8.774c0-.71-.14-1.388-.43-2.024a4.97 4.97 0 0 0-1.15-1.614 5.285 5.285 0 0 0-1.675-1.066 5.48 5.48 0 0 0-2.063-.388 5.44 5.44 0 0 0-2.063.388 5.354 5.354 0 0 0-1.697 1.076 5.07 5.07 0 0 0-1.569 3.704v5.738c0 .732.14 1.421.42 2.056a4.797 4.797 0 0 0 1.149 1.647 5.257 5.257 0 0 0 1.697 1.077 5.499 5.499 0 0 0 2.063.387c.73 0 1.429-.129 2.063-.387a5.378 5.378 0 0 0 1.547-.948l.548 1.174h2.664v-1.292h-.01Zm-6.822-13.048c.516 0 .989.097 1.419.301.43.194.805.463 1.117.786.311.323.548.711.72 1.152.172.442.257.905.257 1.389v5.717c0 .484-.085.947-.257 1.388a3.6 3.6 0 0 1-.72 1.152 3.35 3.35 0 0 1-1.128.775c-.44.194-.935.28-1.461.28-.527 0-.989-.097-1.408-.301a3.522 3.522 0 0 1-1.096-.786 3.3 3.3 0 0 1-.709-1.141 3.921 3.921 0 0 1-.247-1.378v-5.717a3.8 3.8 0 0 1 .258-1.389c.172-.441.42-.828.72-1.151a3.601 3.601 0 0 1 1.117-.786c.43-.194.903-.302 1.418-.302v.011ZM102.595 114.691c.355 0 .666-.129.913-.388.247-.258.376-.57.376-.925 0-.356-.129-.668-.376-.916a1.256 1.256 0 0 0-.913-.376c-.354 0-.666.129-.924.376a1.23 1.23 0 0 0-.387.916c0 .355.129.667.387.925.258.259.57.388.924.388Z" fill="#0F1F2F"/><path d="M101.467 133.822c0 .484-.086.947-.258 1.378-.172.43-.419.818-.72 1.141a3.609 3.609 0 0 1-1.117.786c-.43.193-.902.301-1.418.301a4.475 4.475 0 0 1-1.483-.247 2.823 2.823 0 0 1-1.128-.754l-.096-.108-1.064 1.066.107.097c.473.441 1.021.807 1.633 1.087.613.291 1.3.431 2.03.431.731 0 1.419-.129 2.053-.388a5.428 5.428 0 0 0 1.676-1.065c.483-.453.87-.991 1.149-1.615a5.579 5.579 0 0 0 .441-2.046v-14.372c0-.161.054-.28.172-.388.129-.118.29-.204.462-.269.215-.075.462-.129.73-.183l.108-.021v-1.271h-3.277v16.44ZM115.895 128.32a3.986 3.986 0 0 1-.311 1.314 3.45 3.45 0 0 1-.709 1.066 3.487 3.487 0 0 1-1.085.721 3.424 3.424 0 0 1-1.386.269c-.505 0-.935-.086-1.343-.269a3.65 3.65 0 0 1-1.085-.732 3.6 3.6 0 0 1-.752-1.066 3.623 3.623 0 0 1-.333-1.303v-2.928h8.809v-3.068c0-.732-.139-1.421-.43-2.046a5.157 5.157 0 0 0-1.138-1.625 5.191 5.191 0 0 0-1.676-1.088 5.26 5.26 0 0 0-2.063-.398c-.731 0-1.418.14-2.063.398a5.76 5.76 0 0 0-1.686 1.088 4.97 4.97 0 0 0-1.139 1.636c-.28.625-.408 1.314-.408 2.046v6.007c.032.7.193 1.356.483 1.948.29.593.666 1.12 1.139 1.562a5.177 5.177 0 0 0 1.665 1.033 5.47 5.47 0 0 0 2.02.377 5.374 5.374 0 0 0 3.663-1.41c.473-.442.86-.969 1.15-1.562a5.01 5.01 0 0 0 .494-1.948v-.14h-1.794v.129l-.022-.011Zm-7.015-4.489v-1.529c0-.484.086-.947.247-1.388a3.3 3.3 0 0 1 .709-1.142 3.675 3.675 0 0 1 1.107-.775c.429-.183.913-.28 1.45-.28.537 0 .999.097 1.429.28.43.183.806.452 1.106.775.312.323.548.711.709 1.142.162.441.248.904.248 1.388v1.529h-7.016.011ZM138.832 114.271a5.33 5.33 0 0 0-1.687-1.087 5.294 5.294 0 0 0-2.062-.398h-6.779v1.345h.129c.247 0 .472.033.655.097.161.054.312.129.451.237a.584.584 0 0 1 .226.388v5.436c0 .915.172 1.712.515 2.358a4.589 4.589 0 0 0 1.354 1.604 5.562 5.562 0 0 0 1.923.904c.72.194 1.461.291 2.224.291.516 0 .956.086 1.311.258.354.173.644.399.848.689.215.291.376.625.473.991a4.029 4.029 0 0 1 0 2.261 2.769 2.769 0 0 1-.473.979c-.214.28-.494.506-.848.668-.355.172-.795.258-1.311.258h-6.553v1.561h6.553c.763 0 1.45-.118 2.031-.355a3.876 3.876 0 0 0 1.439-.99c.376-.42.655-.916.849-1.475a5.41 5.41 0 0 0 .279-1.777c0-.624-.097-1.216-.29-1.776a4.445 4.445 0 0 0-.859-1.486c-.376-.43-.871-.764-1.451-1.001-.58-.237-1.257-.355-2.019-.355-.763 0-1.429-.097-1.956-.302a3.19 3.19 0 0 1-1.278-.839 3.32 3.32 0 0 1-.72-1.314 5.811 5.811 0 0 1-.236-1.722v-5.383h3.502c.516 0 .999.097 1.429.28.43.194.806.452 1.117.775.312.323.559.71.731 1.152.172.441.258.904.258 1.389v2.4h1.772v-2.4c0-.732-.14-1.421-.408-2.046a4.985 4.985 0 0 0-1.139-1.636v.021ZM146.696 131.679a1.319 1.319 0 0 1-.462-.28c-.118-.107-.172-.269-.172-.484v-13.543h-3.309v1.281h.129c.258.021.484.064.688.14.183.064.344.15.483.258.119.097.183.248.204.442v11.476c-.032.215-.107.377-.247.473-.15.119-.3.194-.472.248a2.132 2.132 0 0 1-.656.097h-.129v1.324h4.781v-1.313h-.129a3.4 3.4 0 0 1-.72-.129l.011.01ZM144.902 114.691c.355 0 .666-.129.913-.388.247-.258.376-.57.376-.925 0-.356-.129-.668-.376-.916a1.256 1.256 0 0 0-.913-.376 1.3 1.3 0 0 0-.924.376 1.23 1.23 0 0 0-.387.916c0 .355.129.667.387.925.258.259.569.388.924.388ZM160.308 118.707a5.191 5.191 0 0 0-1.676-1.088 5.3 5.3 0 0 0-2.063-.398c-.73 0-1.429.129-2.062.388a5.022 5.022 0 0 0-1.451.872v-1.066h-3.309v1.205h.129c.29.022.527.065.677.108.15.043.301.129.451.248a.694.694 0 0 1 .247.43v17.419a.642.642 0 0 1-.225.409c-.14.108-.29.183-.462.237a1.951 1.951 0 0 1-.656.097h-.129v1.346h4.749v-1.335h-.129a3.376 3.376 0 0 1-.72-.129 1.713 1.713 0 0 1-.472-.269c-.119-.097-.172-.248-.172-.463v-4.651c.429.366.913.657 1.45.872a5.5 5.5 0 0 0 2.063.387c.73 0 1.429-.129 2.062-.387a5.32 5.32 0 0 0 1.687-1.077 5.24 5.24 0 0 0 1.139-1.647c.279-.635.43-1.324.43-2.056v-5.76c0-.732-.14-1.421-.43-2.045a5.137 5.137 0 0 0-1.139-1.626l.011-.021Zm-3.75 13.048c-.537 0-1.02-.097-1.45-.302a3.606 3.606 0 0 1-1.117-.786 3.282 3.282 0 0 1-.709-1.141 3.92 3.92 0 0 1-.247-1.378v-5.76c0-.484.086-.947.258-1.388.171-.442.419-.829.719-1.152a3.372 3.372 0 0 1 1.107-.775c.43-.194.902-.28 1.418-.28.516 0 1.021.097 1.45.301.43.205.806.463 1.118.797.311.323.548.71.709 1.141.161.431.247.894.247 1.378v5.76c0 .484-.086.947-.258 1.388a3.598 3.598 0 0 1-.72 1.152 3.302 3.302 0 0 1-1.117.775c-.43.194-.903.28-1.418.28l.01-.01ZM175.553 131.733a1.748 1.748 0 0 1-.473-.237.593.593 0 0 1-.236-.42v-8.774c0-.71-.14-1.388-.43-2.024a4.957 4.957 0 0 0-1.15-1.614 5.276 5.276 0 0 0-1.676-1.066 5.476 5.476 0 0 0-2.062-.388 5.44 5.44 0 0 0-2.063.388 5.346 5.346 0 0 0-1.697 1.076 5.075 5.075 0 0 0-1.569 3.704v5.738c0 .732.14 1.421.419 2.056a4.793 4.793 0 0 0 1.15 1.647 5.246 5.246 0 0 0 1.697 1.077 5.5 5.5 0 0 0 2.063.387c.73 0 1.429-.129 2.062-.387a5.363 5.363 0 0 0 1.547-.948l.548 1.174h2.665v-1.292h-.129c-.247 0-.473-.032-.656-.097h-.01Zm-6.027-12.951c.515 0 .988.097 1.418.301.43.194.806.463 1.117.786.312.323.548.711.72 1.152.172.442.258.905.258 1.389v5.717c0 .484-.086.947-.258 1.388a3.598 3.598 0 0 1-.72 1.152 3.338 3.338 0 0 1-1.128.775c-.44.194-.935.28-1.461.28s-.988-.097-1.407-.301a3.525 3.525 0 0 1-1.096-.786 3.29 3.29 0 0 1-.709-1.141 3.924 3.924 0 0 1-.247-1.378v-5.717c0-.484.086-.947.257-1.389.172-.441.419-.828.72-1.151a3.606 3.606 0 0 1 1.118-.786 3.408 3.408 0 0 1 1.418-.302v.011ZM192.183 131.808c-.268-.021-.515-.053-.72-.129a1.319 1.319 0 0 1-.462-.28c-.118-.107-.171-.269-.171-.484v-8.559a5.024 5.024 0 0 0-1.569-3.682 5.238 5.238 0 0 0-1.697-1.076 5.485 5.485 0 0 0-2.063-.388 5.44 5.44 0 0 0-3.76 1.464 5.179 5.179 0 0 0-1.15 1.637 4.978 4.978 0 0 0-.419 2.045v8.559c0 .215-.064.366-.182.474-.14.118-.301.215-.473.28a3.263 3.263 0 0 1-.72.129h-.129v1.324h4.781v-1.314h-.129a3.256 3.256 0 0 1-.72-.129 1.319 1.319 0 0 1-.462-.28c-.118-.107-.172-.269-.172-.484v-8.548c0-.484.086-.947.258-1.378.172-.431.419-.807.72-1.141a3.63 3.63 0 0 1 1.117-.786c.43-.194.903-.302 1.418-.302.516 0 .989.097 1.419.302a3.63 3.63 0 0 1 1.117.786c.311.323.548.71.72 1.141.172.431.257.894.257 1.378v8.548c0 .215-.064.366-.182.474-.14.118-.301.215-.473.28-.204.064-.44.107-.72.129h-.129v1.313h4.781v-1.313h-.129l.043.01ZM121.041 74.563v17.322H99.436c-3.846 0-7.445-.7-10.807-2.1-3.363-1.399-6.317-3.304-8.863-5.716-2.547-2.412-4.545-5.264-5.984-8.548-1.44-3.283-2.16-6.858-2.16-10.722h8.09c0 2.702.483 5.285 1.45 7.75.967 2.466 2.32 4.62 4.061 6.45 1.74 1.84 3.825 3.283 6.242 4.349 2.417 1.066 5.082 1.593 7.971 1.593h13.365V77.61c0-3.478-.43-6.643-1.3-9.485-.87-2.853-2.213-5.286-4.039-7.32-1.837-2.024-4.212-3.596-7.155-4.705-2.933-1.109-15.868-1.669-20.1-1.669-4.234 0-7.596-.624-10.626-1.884-1.87-.775-3.535-1.733-5.006-2.874V86.2h8.143v5.684h-24.43V86.2h8.154V5.856h-8.154V.172h16.276v33.589c.14.926.344 1.852.59 2.767.58 2.078 1.473 3.93 2.676 5.576 1.203 1.648 2.815 2.94 4.834 3.908 2.03.959 4.48 1.443 7.38 1.443 4.04 0 17.308.506 21.122 1.518 3.803 1.023 7.177 2.605 10.11 4.78 2.943 2.175 5.307 4.974 7.09 8.408 1.784 3.423 2.675 7.557 2.675 12.38v.022Z" fill="#0F1F2F"/><path d="M136.06 5.684h8.155V0h-24.431v5.684h8.144V44.14a21.438 21.438 0 0 0-4.845-2.756c-3.03-1.249-6.575-1.884-10.626-1.884-4.05 0-17.167-.56-20.1-1.668-2.933-1.11-5.318-2.681-7.155-4.705-1.837-2.035-3.18-4.468-4.04-7.32-.87-2.843-1.3-6.008-1.3-9.485V6.955h9.497c2.901 0 5.555.527 7.972 1.593 2.417 1.066 4.501 2.508 6.242 4.35 1.74 1.83 3.094 3.983 4.061 6.448.967 2.454 1.45 5.038 1.45 7.751v1.195h8.09v-1.195c0-3.865-.72-7.439-2.16-10.722a26.283 26.283 0 0 0-5.984-8.548c-2.546-2.412-5.5-4.317-8.863-5.717C96.805.71 93.205.01 89.359.01H71.622v19.357c0 4.834.892 8.957 2.675 12.381 1.784 3.424 4.147 6.223 7.09 8.408 2.934 2.175 6.307 3.757 10.11 4.78 3.803 1.012 17.071 1.518 21.122 1.518 2.89 0 5.35.484 7.38 1.443 2.02.968 3.631 2.271 4.835 3.907 1.203 1.648 2.095 3.5 2.675 5.577.172.614.311 1.227.429 1.852v32.9h16.277v-5.685h-8.155V5.684Z" fill="#0F1F2F"/></svg>