<svg viewBox="0 0 307 223" fill="none" xmlns="http://www.w3.org/2000/svg">
<path d="M14.1319 182.169H14.3382C14.7509 182.169 15.1119 182.221 15.4213 182.341C15.6792 182.427 15.9199 182.548 16.1606 182.737C16.3669 182.91 16.4873 183.134 16.5388 183.426V199.5H5.29518V183.599C5.29518 183.254 5.39833 183.013 5.58744 182.841C5.81094 182.651 6.06882 182.496 6.3439 182.393C6.67055 182.289 7.04878 182.221 7.49577 182.186H7.70208V180.084H0V182.186H0.206306C0.670493 182.221 1.04872 182.272 1.32379 182.358C1.58168 182.444 1.82237 182.565 2.04586 182.755C2.25217 182.927 2.37251 183.168 2.42409 183.444V209.251C2.37251 209.579 2.25217 209.803 2.02867 209.975C1.78798 210.164 1.54729 210.285 1.27222 210.371C0.945567 210.474 0.601725 210.526 0.223498 210.526H0.0171921V212.645H7.6505V210.543H7.44419C7.01439 210.509 6.61897 210.44 6.29232 210.337C6.00006 210.233 5.75937 210.078 5.55306 209.889C5.36395 209.716 5.27799 209.458 5.27799 209.113V202.016H16.5388V209.268C16.4873 209.596 16.3669 209.837 16.1606 209.992C15.9371 210.182 15.6964 210.302 15.4213 210.388C15.1291 210.492 14.768 210.543 14.3554 210.543H14.1491V212.662H21.7996V210.561H21.5933C21.1635 210.526 20.7681 210.457 20.4415 210.354C20.1492 210.25 19.9085 210.095 19.7022 209.906C19.5131 209.734 19.4271 209.475 19.4271 209.131V183.633C19.4271 183.289 19.5131 183.03 19.7022 182.858C19.9085 182.668 20.1492 182.513 20.4415 182.41C20.7681 182.307 21.1635 182.238 21.5933 182.203H21.7996V180.084H14.1491V182.186L14.1319 182.169Z" fill="white"/>
<path d="M40.264 189.508C39.4904 188.767 38.5792 188.199 37.5477 187.785C36.5161 187.372 35.4158 187.165 34.2468 187.165C33.0777 187.165 31.9602 187.372 30.9459 187.785C29.9316 188.199 29.0032 188.767 28.2295 189.508C27.4559 190.249 26.837 191.127 26.39 192.127C25.943 193.126 25.7195 194.228 25.7195 195.4V204.617C25.7195 205.788 25.943 206.891 26.39 207.907C26.8198 208.924 27.4387 209.803 28.2295 210.543C29.0032 211.284 29.9144 211.853 30.9459 212.266C31.9774 212.68 33.0777 212.886 34.2468 212.886C35.4158 212.886 36.5333 212.68 37.5477 212.266C38.5792 211.853 39.4904 211.284 40.264 210.543C41.0377 209.803 41.6566 208.924 42.1036 207.907C42.5506 206.891 42.7741 205.788 42.7741 204.617V195.4C42.7741 194.228 42.5506 193.126 42.1036 192.127C41.6738 191.127 41.0549 190.249 40.264 189.508ZM34.2468 210.388C33.3872 210.388 32.6135 210.233 31.9258 209.906C31.2382 209.596 30.6364 209.165 30.1379 208.648C29.6393 208.131 29.2611 207.511 29.0032 206.822C28.7453 206.133 28.6078 205.392 28.6078 204.617V195.417C28.6078 194.642 28.7453 193.901 29.0204 193.212C29.2954 192.523 29.6909 191.903 30.1722 191.386C30.6708 190.869 31.2725 190.438 31.9602 190.128C32.6479 189.818 33.4044 189.646 34.2296 189.646C35.0548 189.646 35.8628 189.801 36.5505 190.128C37.2382 190.438 37.8399 190.869 38.3385 191.386C38.8371 191.903 39.2153 192.523 39.4732 193.229C39.7311 193.936 39.8686 194.676 39.8686 195.452V204.6C39.8686 205.375 39.7311 206.116 39.4732 206.822C39.2153 207.528 38.8371 208.149 38.3385 208.666C37.8399 209.182 37.2382 209.613 36.5677 209.906C35.88 210.199 35.1064 210.354 34.2468 210.354V210.388Z" fill="white"/>
<path d="M60.7398 200.655C60.1037 199.948 59.3129 199.345 58.3845 198.846C57.4561 198.346 56.3558 197.984 55.1008 197.795C54.5163 197.709 53.9489 197.553 53.3644 197.33C52.7971 197.106 52.2985 196.813 51.8343 196.434C51.3873 196.072 51.0263 195.624 50.7512 195.09C50.4761 194.573 50.3558 193.97 50.3558 193.298C50.3558 191.989 50.7512 191.076 51.5764 190.524C52.4188 189.956 53.4332 189.68 54.6194 189.68C55.9948 189.68 57.1123 190.077 57.9719 190.869C58.8315 191.661 59.2613 192.799 59.2613 194.28V194.487H61.7026V194.28C61.7026 193.281 61.5478 192.333 61.2384 191.472C60.9289 190.593 60.4647 189.835 59.863 189.181C59.2613 188.526 58.5048 188.026 57.6452 187.682C56.7856 187.337 55.7713 187.165 54.671 187.165C53.7426 187.165 52.8486 187.268 52.0406 187.492C51.2154 187.716 50.4761 188.078 49.8572 188.578C49.2383 189.077 48.7397 189.732 48.3787 190.524C48.0176 191.3 47.8457 192.282 47.8457 193.436C47.8457 194.47 48.0176 195.383 48.3271 196.175C48.6537 196.968 49.1179 197.674 49.6853 198.243C50.2526 198.811 50.9403 199.293 51.6968 199.638C52.4532 199.983 53.2784 200.241 54.1552 200.379C54.9117 200.517 55.6338 200.741 56.3042 201.016C56.9575 201.292 57.5593 201.671 58.075 202.119C58.5736 202.567 58.9862 203.118 59.2957 203.773C59.5879 204.41 59.7427 205.168 59.7427 206.03C59.7427 206.77 59.6051 207.408 59.3301 207.959C59.055 208.493 58.694 208.941 58.2298 209.286C57.7656 209.63 57.2154 209.889 56.5965 210.061C55.9776 210.233 55.3243 210.337 54.6538 210.337C53.7942 210.337 53.0205 210.199 52.3329 209.906C51.6452 209.613 51.0435 209.217 50.5449 208.717C50.0463 208.218 49.6681 207.632 49.4102 206.96C49.1523 206.288 49.0148 205.547 49.0148 204.772V204.565H46.264V204.772C46.264 205.944 46.4703 207.046 46.9001 208.028C47.33 209.01 47.9145 209.871 48.6709 210.578C49.4102 211.284 50.3214 211.853 51.3357 212.232C52.3501 212.628 53.4675 212.817 54.6194 212.817C55.7713 212.817 56.8544 212.645 57.8343 212.318C58.8143 211.973 59.6739 211.491 60.3616 210.871C61.0665 210.251 61.6166 209.492 62.012 208.597C62.3903 207.718 62.5794 206.702 62.5794 205.616C62.5794 204.738 62.4246 203.859 62.1152 202.998C61.8057 202.136 61.3415 201.344 60.7054 200.637L60.7398 200.655Z" fill="white"/>
<path d="M83.6569 189.542C82.9005 188.802 81.9893 188.216 80.975 187.802C79.9434 187.372 78.8432 187.165 77.6741 187.165C76.505 187.165 75.3875 187.372 74.3732 187.785C73.5136 188.13 72.7227 188.595 72.0523 189.181V187.475H66.7571V189.405H66.9634C67.4276 189.439 67.8058 189.508 68.0465 189.577C68.2872 189.646 68.5279 189.784 68.7686 189.973C68.9749 190.145 69.1124 190.369 69.164 190.662V218.537C69.1124 218.83 68.9921 219.037 68.8029 219.192C68.5794 219.364 68.3388 219.485 68.0637 219.571C67.7714 219.674 67.4276 219.726 67.015 219.726H66.8087V221.879H74.4076V219.743H74.2013C73.7715 219.709 73.3761 219.64 73.0494 219.536C72.7571 219.433 72.5164 219.278 72.2929 219.106C72.1038 218.951 72.0179 218.709 72.0179 218.365V210.922C72.7056 211.508 73.4792 211.973 74.3388 212.318C75.3703 212.731 76.4706 212.938 77.6397 212.938C78.8088 212.938 79.9263 212.731 80.9406 212.318C81.9549 211.904 82.8661 211.336 83.6398 210.595C84.3962 209.854 85.0151 208.976 85.4621 207.959C85.9091 206.943 86.1498 205.84 86.1498 204.669V195.452C86.1498 194.28 85.9263 193.178 85.4621 192.178C85.0151 191.179 84.3962 190.3 83.6398 189.577L83.6569 189.542ZM77.6569 210.423C76.7973 210.423 76.0236 210.268 75.336 209.94C74.6483 209.63 74.0465 209.2 73.548 208.683C73.0494 208.166 72.6712 207.546 72.4133 206.857C72.1554 206.167 72.0179 205.427 72.0179 204.651V195.434C72.0179 194.659 72.1554 193.918 72.4305 193.212C72.7056 192.506 73.101 191.885 73.5824 191.369C74.0809 190.852 74.6655 190.421 75.3531 190.128C76.0408 189.818 76.7973 189.68 77.6225 189.68C78.4477 189.68 79.2558 189.835 79.9434 190.163C80.6311 190.49 81.2329 190.903 81.7314 191.438C82.23 191.954 82.6082 192.575 82.8661 193.264C83.124 193.953 83.2615 194.694 83.2615 195.469V204.686C83.2615 205.461 83.124 206.202 82.8489 206.908C82.5738 207.615 82.1784 208.235 81.697 208.752C81.1985 209.268 80.6139 209.699 79.9091 209.992C79.2214 210.302 78.4649 210.44 77.6397 210.44L77.6569 210.423Z" fill="white"/>
<path d="M104.012 204.927C103.961 205.685 103.789 206.391 103.514 207.029C103.239 207.666 102.861 208.252 102.379 208.734C101.898 209.217 101.313 209.596 100.643 209.889C99.9723 210.182 99.2331 210.319 98.425 210.319C97.617 210.319 96.9293 210.182 96.276 209.889C95.6227 209.596 95.021 209.2 94.5396 208.717C94.0411 208.235 93.6456 207.666 93.3362 207.012C93.0267 206.357 92.8548 205.651 92.8032 204.927V200.241H106.901V195.331C106.901 194.16 106.677 193.057 106.213 192.058C105.766 191.059 105.147 190.18 104.391 189.456C103.634 188.715 102.723 188.13 101.709 187.716C100.694 187.286 99.5769 187.079 98.4079 187.079C97.2388 187.079 96.1385 187.303 95.107 187.716C94.0926 188.147 93.1814 188.733 92.4078 189.456C91.6341 190.197 91.0152 191.076 90.5854 192.075C90.1384 193.074 89.9321 194.177 89.9321 195.348V204.961C89.9837 206.081 90.2416 207.132 90.7058 208.08C91.17 209.027 91.7717 209.871 92.5281 210.578C93.2846 211.284 94.1786 211.835 95.1929 212.232C96.1901 212.628 97.2904 212.835 98.425 212.835C99.5597 212.835 100.643 212.628 101.64 212.232C102.637 211.835 103.514 211.284 104.288 210.578C105.044 209.871 105.663 209.027 106.127 208.08C106.591 207.115 106.866 206.064 106.918 204.961V204.738H104.047V204.944L104.012 204.927ZM92.786 197.743V195.297C92.786 194.521 92.9236 193.781 93.1814 193.074C93.4393 192.385 93.8176 191.765 94.3161 191.248C94.8147 190.731 95.4164 190.318 96.0869 190.008C96.7746 189.715 97.5482 189.56 98.4079 189.56C99.2675 189.56 100.007 189.715 100.694 190.008C101.382 190.3 101.984 190.731 102.465 191.248C102.964 191.765 103.342 192.385 103.6 193.074C103.858 193.781 103.995 194.521 103.995 195.297V197.743H92.7688H92.786Z" fill="white"/>
<path d="M128.597 210.388C128.339 210.302 128.116 210.182 127.875 209.992C127.652 209.82 127.531 209.596 127.48 209.337V178.017H122.184V180.119H122.391C122.821 180.153 123.216 180.222 123.543 180.325C123.835 180.429 124.076 180.584 124.282 180.756C124.471 180.928 124.574 181.17 124.591 181.497V189.112C123.904 188.526 123.13 188.061 122.27 187.716C121.239 187.303 120.139 187.096 118.97 187.096C117.8 187.096 116.683 187.303 115.669 187.733C114.654 188.164 113.743 188.75 112.952 189.474C112.179 190.214 111.56 191.093 111.113 192.092C110.666 193.091 110.442 194.194 110.442 195.366V204.582C110.442 205.754 110.666 206.857 111.113 207.856C111.56 208.855 112.161 209.734 112.952 210.474C113.726 211.215 114.637 211.801 115.669 212.214C116.7 212.645 117.8 212.852 118.97 212.852C120.139 212.852 121.256 212.645 122.27 212.232C123.199 211.853 124.024 211.353 124.746 210.716L125.623 212.594H129.887V210.543H129.68C129.216 210.509 128.855 210.457 128.597 210.371V210.388ZM118.952 189.611C119.812 189.611 120.586 189.766 121.273 190.094C121.961 190.404 122.563 190.835 123.061 191.351C123.56 191.868 123.938 192.488 124.196 193.178C124.454 193.867 124.591 194.607 124.591 195.383V204.651C124.591 205.427 124.454 206.167 124.179 206.857C123.904 207.546 123.508 208.166 123.01 208.683C122.511 209.2 121.909 209.63 121.205 209.923C120.5 210.233 119.709 210.388 118.849 210.388C117.99 210.388 117.268 210.233 116.597 209.906C115.927 209.579 115.342 209.165 114.861 208.648C114.379 208.131 114.001 207.511 113.743 206.822C113.485 206.133 113.348 205.392 113.348 204.617V195.4C113.348 194.625 113.485 193.884 113.743 193.195C114.001 192.506 114.396 191.885 114.878 191.369C115.376 190.852 115.978 190.421 116.666 190.111C117.354 189.801 118.127 189.629 118.952 189.629V189.611Z" fill="white"/>
<path d="M153.044 210.543H152.838C152.443 210.543 152.082 210.492 151.789 210.388C151.532 210.302 151.274 210.182 151.033 210.009C150.827 209.854 150.689 209.63 150.655 209.337V195.297C150.655 194.16 150.431 193.074 149.967 192.058C149.52 191.059 148.901 190.197 148.127 189.474C147.371 188.75 146.46 188.181 145.445 187.768C144.414 187.354 143.314 187.148 142.145 187.148C140.976 187.148 139.858 187.354 138.844 187.768C137.829 188.181 136.901 188.75 136.127 189.491C135.354 190.232 134.735 191.11 134.288 192.127C133.841 193.143 133.617 194.246 133.617 195.417V204.6C133.617 205.771 133.841 206.874 134.288 207.89C134.718 208.907 135.337 209.785 136.127 210.526C136.901 211.267 137.812 211.835 138.844 212.249C139.875 212.662 140.976 212.869 142.145 212.869C143.314 212.869 144.431 212.662 145.445 212.249C146.374 211.87 147.199 211.37 147.921 210.733L148.798 212.611H153.062V210.543H153.044ZM142.127 189.663C142.953 189.663 143.709 189.818 144.397 190.145C145.084 190.456 145.686 190.886 146.185 191.403C146.683 191.92 147.062 192.54 147.337 193.246C147.612 193.953 147.749 194.694 147.749 195.469V204.617C147.749 205.392 147.612 206.133 147.337 206.839C147.062 207.546 146.666 208.166 146.185 208.683C145.686 209.2 145.084 209.63 144.38 209.923C143.675 210.233 142.884 210.371 142.041 210.371C141.199 210.371 140.46 210.216 139.789 209.889C139.119 209.579 138.517 209.148 138.036 208.631C137.537 208.114 137.159 207.494 136.901 206.805C136.643 206.116 136.506 205.375 136.506 204.6V195.452C136.506 194.676 136.643 193.936 136.918 193.229C137.193 192.523 137.589 191.903 138.07 191.386C138.569 190.869 139.17 190.438 139.858 190.128C140.546 189.818 141.302 189.646 142.127 189.646V189.663Z" fill="white"/>
<path d="M163.446 183.116C164.013 183.116 164.511 182.91 164.907 182.496C165.302 182.083 165.509 181.583 165.509 181.015C165.509 180.446 165.302 179.946 164.907 179.55C164.511 179.154 164.013 178.947 163.446 178.947C162.878 178.947 162.38 179.154 161.967 179.55C161.554 179.946 161.348 180.446 161.348 181.015C161.348 181.583 161.554 182.083 161.967 182.496C162.38 182.91 162.878 183.116 163.446 183.116Z" fill="white"/>
<path d="M161.64 213.731C161.64 214.506 161.503 215.247 161.228 215.936C160.953 216.625 160.557 217.245 160.076 217.762C159.577 218.279 158.976 218.709 158.288 219.02C157.6 219.33 156.844 219.502 156.019 219.502C155.193 219.502 154.368 219.364 153.646 219.106C152.941 218.847 152.322 218.434 151.841 217.9L151.686 217.727L149.984 219.433L150.156 219.588C150.913 220.294 151.789 220.88 152.769 221.328C153.749 221.793 154.85 222.017 156.019 222.017C157.188 222.017 158.288 221.81 159.302 221.397C160.317 220.984 161.211 220.415 161.984 219.691C162.758 218.968 163.377 218.106 163.824 217.107C164.254 216.108 164.494 215.005 164.529 213.834V190.835C164.529 190.576 164.615 190.387 164.804 190.214C165.01 190.025 165.268 189.887 165.543 189.784C165.887 189.663 166.282 189.577 166.712 189.491L166.884 189.456V187.423H161.64V213.731Z" fill="white"/>
<path d="M184.73 204.927C184.678 205.685 184.506 206.391 184.231 207.029C183.956 207.666 183.578 208.252 183.096 208.734C182.615 209.217 182.03 209.596 181.36 209.889C180.689 210.182 179.95 210.319 179.142 210.319C178.334 210.319 177.646 210.182 176.993 209.889C176.34 209.596 175.738 209.2 175.257 208.717C174.758 208.235 174.363 207.666 174.053 207.012C173.744 206.357 173.572 205.651 173.52 204.927V200.241H187.618V195.331C187.618 194.16 187.394 193.057 186.93 192.058C186.483 191.059 185.864 190.18 185.108 189.456C184.351 188.715 183.44 188.13 182.426 187.716C181.411 187.286 180.294 187.079 179.125 187.079C177.956 187.079 176.856 187.303 175.824 187.716C174.81 188.147 173.898 188.733 173.125 189.456C172.351 190.197 171.732 191.076 171.302 192.075C170.855 193.074 170.649 194.177 170.649 195.348V204.961C170.701 206.081 170.959 207.132 171.423 208.08C171.887 209.027 172.489 209.871 173.245 210.578C174.002 211.284 174.896 211.835 175.91 212.232C176.907 212.628 178.007 212.835 179.142 212.835C180.277 212.835 181.36 212.628 182.357 212.232C183.354 211.835 184.231 211.284 185.005 210.578C185.761 209.871 186.38 209.027 186.844 208.08C187.308 207.115 187.583 206.064 187.635 204.961V204.738H184.764V204.944L184.73 204.927ZM173.503 197.743V195.297C173.503 194.521 173.641 193.781 173.898 193.074C174.156 192.385 174.535 191.765 175.033 191.248C175.532 190.731 176.133 190.318 176.804 190.008C177.492 189.715 178.265 189.56 179.125 189.56C179.985 189.56 180.724 189.715 181.411 190.008C182.099 190.3 182.701 190.731 183.182 191.248C183.681 191.765 184.059 192.385 184.317 193.074C184.575 193.781 184.712 194.521 184.712 195.297V197.743H173.486H173.503Z" fill="white"/>
<path d="M221.435 182.444C220.661 181.704 219.75 181.118 218.736 180.704C217.704 180.274 216.604 180.067 215.435 180.067H204.586V182.221H204.793C205.188 182.221 205.549 182.272 205.841 182.376C206.099 182.462 206.34 182.582 206.564 182.755C206.77 182.91 206.89 183.134 206.925 183.375V192.075C206.925 193.539 207.2 194.814 207.75 195.848C208.3 196.899 209.022 197.76 209.916 198.415C210.81 199.07 211.842 199.569 212.993 199.862C214.145 200.172 215.332 200.327 216.552 200.327C217.377 200.327 218.082 200.465 218.65 200.741C219.217 201.016 219.681 201.378 220.008 201.843C220.352 202.308 220.61 202.842 220.764 203.428C220.936 204.014 221.022 204.634 221.022 205.237C221.022 205.84 220.936 206.46 220.764 207.046C220.61 207.632 220.352 208.166 220.008 208.614C219.664 209.062 219.217 209.424 218.65 209.682C218.082 209.958 217.377 210.095 216.552 210.095H206.065V212.593H216.552C217.773 212.593 218.873 212.404 219.801 212.025C220.73 211.646 221.503 211.112 222.105 210.44C222.707 209.768 223.154 208.976 223.463 208.08C223.773 207.184 223.91 206.236 223.91 205.237C223.91 204.238 223.756 203.29 223.446 202.395C223.137 201.499 222.673 200.706 222.071 200.017C221.469 199.328 220.678 198.794 219.75 198.415C218.822 198.036 217.738 197.846 216.518 197.846C215.297 197.846 214.231 197.691 213.389 197.364C212.546 197.054 211.859 196.589 211.343 196.02C210.827 195.452 210.432 194.745 210.191 193.918C209.933 193.091 209.813 192.161 209.813 191.162V182.548H215.417C216.243 182.548 217.016 182.703 217.704 182.996C218.392 183.306 218.993 183.719 219.492 184.236C219.991 184.753 220.386 185.373 220.661 186.08C220.936 186.786 221.074 187.527 221.074 188.302V192.144H223.91V188.302C223.91 187.131 223.687 186.028 223.257 185.029C222.827 184.029 222.208 183.151 221.435 182.41V182.444Z" fill="white"/>
<path d="M234.019 210.302C233.727 210.199 233.486 210.044 233.28 209.854C233.091 209.682 233.005 209.424 233.005 209.079V187.406H227.71V189.456H227.916C228.329 189.491 228.69 189.56 229.016 189.68C229.309 189.784 229.567 189.921 229.79 190.094C229.979 190.249 230.082 190.49 230.117 190.8V209.165C230.065 209.51 229.945 209.768 229.721 209.923C229.481 210.113 229.24 210.233 228.965 210.319C228.638 210.423 228.294 210.474 227.916 210.474H227.71V212.593H235.36V210.492H235.154C234.724 210.457 234.329 210.388 234.002 210.285L234.019 210.302Z" fill="white"/>
<path d="M231.148 183.116C231.716 183.116 232.214 182.91 232.61 182.496C233.005 182.083 233.211 181.583 233.211 181.015C233.211 180.446 233.005 179.946 232.61 179.55C232.214 179.154 231.716 178.947 231.148 178.947C230.581 178.947 230.082 179.154 229.67 179.55C229.257 179.946 229.051 180.446 229.051 181.015C229.051 181.583 229.257 182.083 229.67 182.496C230.082 182.91 230.581 183.116 231.148 183.116Z" fill="white"/>
<path d="M255.802 189.542C255.045 188.802 254.134 188.216 253.12 187.802C252.088 187.372 250.988 187.165 249.819 187.165C248.65 187.165 247.532 187.372 246.518 187.785C245.658 188.13 244.868 188.595 244.197 189.181V187.475H238.902V189.405H239.108C239.572 189.439 239.951 189.508 240.191 189.577C240.432 189.646 240.673 189.784 240.913 189.973C241.12 190.145 241.257 190.369 241.309 190.662V218.537C241.257 218.83 241.137 219.037 240.948 219.192C240.724 219.364 240.484 219.485 240.209 219.571C239.916 219.674 239.572 219.726 239.16 219.726H238.954V221.879H246.552V219.743H246.346C245.916 219.709 245.521 219.64 245.194 219.536C244.902 219.433 244.661 219.278 244.438 219.106C244.249 218.951 244.163 218.709 244.163 218.365V210.922C244.85 211.508 245.624 211.973 246.484 212.318C247.515 212.731 248.616 212.938 249.785 212.938C250.954 212.938 252.071 212.731 253.085 212.318C254.1 211.904 255.011 211.336 255.785 210.595C256.541 209.854 257.16 208.976 257.607 207.959C258.054 206.943 258.295 205.84 258.295 204.669V195.452C258.295 194.28 258.071 193.178 257.607 192.178C257.16 191.179 256.541 190.3 255.785 189.577L255.802 189.542ZM249.802 210.423C248.942 210.423 248.169 210.268 247.481 209.94C246.793 209.63 246.191 209.2 245.693 208.683C245.194 208.166 244.816 207.546 244.558 206.857C244.3 206.167 244.163 205.427 244.163 204.651V195.434C244.163 194.659 244.3 193.918 244.575 193.212C244.85 192.506 245.246 191.885 245.727 191.369C246.226 190.852 246.81 190.421 247.498 190.128C248.186 189.818 248.942 189.68 249.767 189.68C250.593 189.68 251.401 189.835 252.088 190.163C252.776 190.49 253.378 190.903 253.876 191.438C254.375 191.954 254.753 192.575 255.011 193.264C255.269 193.953 255.406 194.694 255.406 195.469V204.686C255.406 205.461 255.269 206.202 254.994 206.908C254.719 207.615 254.323 208.235 253.842 208.752C253.343 209.268 252.759 209.699 252.054 209.992C251.366 210.302 250.61 210.44 249.785 210.44L249.802 210.423Z" fill="white"/>
<path d="M280.197 210.388C279.94 210.302 279.682 210.182 279.441 210.009C279.235 209.854 279.097 209.63 279.063 209.337V195.297C279.063 194.16 278.839 193.074 278.375 192.058C277.928 191.059 277.309 190.197 276.536 189.474C275.779 188.75 274.868 188.181 273.854 187.768C272.822 187.354 271.722 187.148 270.553 187.148C269.384 187.148 268.266 187.354 267.252 187.768C266.237 188.181 265.309 188.75 264.535 189.491C263.762 190.232 263.143 191.11 262.696 192.127C262.249 193.143 262.025 194.246 262.025 195.417V204.6C262.025 205.771 262.249 206.874 262.696 207.89C263.126 208.907 263.745 209.785 264.535 210.526C265.309 211.267 266.22 211.835 267.252 212.249C268.283 212.662 269.384 212.869 270.553 212.869C271.722 212.869 272.839 212.662 273.854 212.249C274.782 211.87 275.607 211.37 276.329 210.733L277.206 212.611H281.47V210.543H281.263C280.868 210.543 280.507 210.492 280.215 210.388H280.197ZM270.553 189.663C271.378 189.663 272.134 189.818 272.822 190.145C273.51 190.456 274.111 190.886 274.61 191.403C275.109 191.92 275.487 192.54 275.762 193.246C276.037 193.953 276.175 194.694 276.175 195.469V204.617C276.175 205.392 276.037 206.133 275.762 206.839C275.487 207.546 275.091 208.166 274.61 208.683C274.111 209.2 273.51 209.63 272.805 209.923C272.1 210.233 271.309 210.371 270.467 210.371C269.624 210.371 268.885 210.216 268.215 209.889C267.544 209.579 266.942 209.148 266.461 208.631C265.962 208.114 265.584 207.494 265.326 206.805C265.068 206.116 264.931 205.375 264.931 204.6V195.452C264.931 194.676 265.068 193.936 265.343 193.229C265.619 192.523 266.014 191.903 266.495 191.386C266.994 190.869 267.596 190.438 268.283 190.128C268.971 189.818 269.727 189.646 270.553 189.646V189.663Z" fill="white"/>
<path d="M306.811 210.509C306.381 210.474 305.986 210.423 305.659 210.302C305.367 210.199 305.126 210.044 304.92 209.854C304.731 209.682 304.645 209.424 304.645 209.079V195.383C304.645 194.211 304.421 193.109 303.974 192.109C303.527 191.11 302.925 190.232 302.135 189.491C301.361 188.75 300.45 188.181 299.418 187.768C298.387 187.354 297.286 187.148 296.117 187.148C294.948 187.148 293.831 187.354 292.816 187.768C291.802 188.181 290.891 188.75 290.1 189.491C289.326 190.232 288.707 191.11 288.26 192.109C287.813 193.109 287.59 194.211 287.59 195.383V209.079C287.59 209.424 287.487 209.665 287.298 209.837C287.074 210.027 286.816 210.182 286.541 210.285C286.215 210.388 285.836 210.457 285.389 210.492H285.183V212.611H292.834V210.509H292.627C292.198 210.474 291.802 210.406 291.475 210.302C291.183 210.199 290.942 210.044 290.736 209.854C290.547 209.682 290.461 209.424 290.461 209.079V195.4C290.461 194.625 290.599 193.884 290.874 193.195C291.149 192.506 291.544 191.903 292.026 191.369C292.524 190.852 293.126 190.421 293.814 190.111C294.501 189.801 295.258 189.629 296.083 189.629C296.908 189.629 297.665 189.784 298.352 190.111C299.04 190.421 299.642 190.852 300.14 191.369C300.639 191.885 301.017 192.506 301.292 193.195C301.567 193.884 301.705 194.625 301.705 195.4V209.079C301.705 209.424 301.602 209.665 301.412 209.837C301.189 210.027 300.931 210.182 300.656 210.285C300.329 210.388 299.951 210.457 299.504 210.492H299.298V212.593H306.948V210.492H306.742L306.811 210.509Z" fill="white"/>
<path d="M192.965 119.321V147.041H158.391C152.236 147.041 146.477 145.921 141.096 143.682C135.715 141.442 130.987 138.393 126.912 134.533C122.838 130.674 119.64 126.109 117.336 120.854C115.033 115.6 113.881 109.88 113.881 103.695H126.826C126.826 108.02 127.6 112.154 129.147 116.099C130.695 120.045 132.861 123.49 135.646 126.419C138.431 129.365 141.766 131.674 145.635 133.379C149.503 135.085 153.767 135.929 158.391 135.929H179.778V124.197C179.778 118.632 179.091 113.567 177.698 109.019C176.305 104.453 174.156 100.56 171.234 97.3037C168.294 94.0649 164.494 91.5496 159.784 89.7751C155.09 88.0006 134.391 87.1048 127.617 87.1048C120.844 87.1048 115.462 86.1055 110.614 84.0899C107.623 82.8494 104.958 81.3161 102.603 79.49V137.945H115.634V147.041H76.5394V137.945H89.5883V9.37202H76.5394V0.275635H102.586V54.027C102.809 55.5086 103.136 56.9902 103.531 58.4546C104.459 61.7796 105.886 64.7428 107.812 67.3787C109.737 70.0146 112.316 72.0819 115.548 73.6325C118.798 75.1658 122.718 75.941 127.359 75.941C133.824 75.941 155.056 76.7507 161.159 78.3702C167.245 80.0068 172.643 82.5393 177.337 86.0194C182.048 89.4995 185.83 93.9787 188.684 99.4745C191.538 104.953 192.965 111.569 192.965 119.287V119.321Z" fill="white"/>
<path d="M216.999 9.09638H230.048V0H190.953V9.09638H203.985V70.6348C201.698 68.8948 199.119 67.4132 196.231 66.2244C191.383 64.226 185.709 63.2095 179.228 63.2095C172.747 63.2095 151.755 62.3137 147.062 60.5392C142.368 58.7647 138.551 56.2494 135.612 53.0106C132.672 49.7545 130.523 45.8609 129.147 41.2955C127.755 36.7473 127.067 31.6823 127.067 26.1176V11.1293H142.265C146.907 11.1293 151.153 11.9735 155.022 13.679C158.89 15.3846 162.225 17.6932 165.01 20.6391C167.795 23.5679 169.961 27.0135 171.509 30.9587C173.056 34.8867 173.83 39.0214 173.83 43.3629V45.2752H186.775V43.3629C186.775 37.178 185.624 31.4583 183.32 26.2038C181.016 20.9665 177.818 16.4011 173.744 12.5248C169.669 8.66568 164.941 5.61633 159.56 3.37669C154.179 1.13705 148.42 0.017228 142.265 0.017228H113.881V30.9932C113.881 38.7285 115.308 45.3269 118.162 50.8054C121.015 56.2839 124.798 60.7632 129.508 64.2604C134.202 67.7405 139.6 70.273 145.686 71.9097C151.772 73.5291 173.005 74.3388 179.486 74.3388C184.111 74.3388 188.048 75.1141 191.297 76.6474C194.529 78.1979 197.108 80.2825 199.033 82.9011C200.959 85.537 202.386 88.5002 203.314 91.8252C203.589 92.8072 203.813 93.7892 204.002 94.7885V147.437H230.048V138.341H216.999V9.09638Z" fill="white"/>
</svg>
