<svg width="1rem" height="1rem" viewBox="0 0 14 14" fill="none" xmlns="http://www.w3.org/2000/svg">
<path fill-rule="evenodd" clip-rule="evenodd" d="M0.307991 0.30799C0.718646 -0.102663 1.38445 -0.102663 1.7951 0.30799L7.00004 5.5129L12.2049 0.308063C12.6155 -0.10259 13.2814 -0.10259 13.692 0.308063C14.1027 0.718716 14.1027 1.38452 13.692 1.79517L8.48715 7L13.692 12.2048C14.1027 12.6155 14.1027 13.2813 13.692 13.6919C13.2814 14.1026 12.6155 14.1026 12.2049 13.6919L7.00004 8.48711L1.7951 13.692C1.38445 14.1027 0.718646 14.1027 0.307991 13.692C-0.102664 13.2814 -0.102664 12.6156 0.307991 12.2049L5.51292 7L0.307991 1.79509C-0.102664 1.38444 -0.102664 0.718642 0.307991 0.30799Z" fill="#1F263E"/>
</svg>
