<svg width="24" height="24" viewBox="0 0 24 24" fill="none" xmlns="http://www.w3.org/2000/svg">
<path id="&#240;&#159;&#142;&#168; Icon &#208;&#161;olor" fill-rule="evenodd" clip-rule="evenodd" d="M13.8287 19.0005C13.5367 19.0005 13.2467 18.8735 13.0487 18.6275L8.22066 12.6275C7.92266 12.2565 7.92666 11.7265 8.23166 11.3605L13.2317 5.36047C13.5847 4.93647 14.2157 4.87947 14.6407 5.23247C15.0647 5.58547 15.1217 6.21647 14.7677 6.64047L10.2927 12.0115L14.6077 17.3735C14.9537 17.8035 14.8857 18.4335 14.4547 18.7795C14.2707 18.9285 14.0487 19.0005 13.8287 19.0005Z" fill="#1F263E"/>
<mask id="mask0_8001_2119" style="mask-type:luminance" maskUnits="userSpaceOnUse" x="8" y="5" width="7" height="14">
<path id="&#240;&#159;&#142;&#168; Icon &#208;&#161;olor_2" fill-rule="evenodd" clip-rule="evenodd" d="M13.8287 19.0005C13.5367 19.0005 13.2467 18.8735 13.0487 18.6275L8.22066 12.6275C7.92266 12.2565 7.92666 11.7265 8.23166 11.3605L13.2317 5.36047C13.5847 4.93647 14.2157 4.87947 14.6407 5.23247C15.0647 5.58547 15.1217 6.21647 14.7677 6.64047L10.2927 12.0115L14.6077 17.3735C14.9537 17.8035 14.8857 18.4335 14.4547 18.7795C14.2707 18.9285 14.0487 19.0005 13.8287 19.0005Z" fill="white"/>
</mask>
</svg>
